# xmcd
#
# Track frame offsets: 
#        150
#        12791
#        26188
#        38438
#        48718
#        67441
#        85701
#        94723
#        107005
#        116210
#        131065
#        143931
#        156392
#        169315
#
# Disc length: 2419 seconds
#
# Revision: 4
# Processed by: cddbd v1.5.2PL0 Copyright (c) Steve Scherf et al.
# Submitted via: ExactAudioCopy v1.0b3
#
DISCID=c809710e
DTITLE=Various Artist - The best of country legends
DYEAR=2003
DGENRE=Country
TTITLE0=Waylon Jennings - I'm a ramblin' man
TTITLE1=Jimmie Rodgers - Mule skinner blues (Blue yodel no. 8)
TTITLE2=Glen Campbell - By the time I get to Phoenix
TTITLE3=George Jones - Why, baby, why?
TTITLE4=Bellamy Brothers - Beggars and heroes
TTITLE5=Alabama - My home's in Alabama
TTITLE6=Charley Pride - Honky tonk blues
TTITLE7=Eddy Arnold - I'll hold you in my heart
TTITLE8=Chet Atkins - Yakety axe
TTITLE9=Jerry Reed - Lord, Mr. Ford
TTITLE10=Bill Monroe - Tennessee blues
TTITLE11=Hank Snow - Golden rocket
TTITLE12=Lynn Anderson - (I never promised you a) Rose garden
TTITLE13=Tammy Wynette - Stand by your man
EXTD=YEAR: 2003
EXTT0=
EXTT1=
EXTT2=
EXTT3=
EXTT4=
EXTT5=
EXTT6=
EXTT7=
EXTT8=
EXTT9=
EXTT10=
EXTT11=
EXTT12=
EXTT13=
PLAYORDER=
